<mxfile host="app.diagrams.net" agent="Mozilla/5.0 (Windows NT 10.0; Win64; x64) AppleWebKit/537.36 (KHTML, like Gecko) Chrome/134.0.0.0 Safari/537.36" version="26.2.8">
  <diagram name="Trang-1" id="_zSwipDkC4pUuVc7Ita4">
    <mxGraphModel dx="728" dy="366" grid="1" gridSize="10" guides="1" tooltips="1" connect="1" arrows="1" fold="1" page="1" pageScale="1" pageWidth="827" pageHeight="1169" math="0" shadow="0">
      <root>
        <mxCell id="0" />
        <mxCell id="1" parent="0" />
        <mxCell id="g_psVAVuW3C_1zubWyLo-5" style="edgeStyle=orthogonalEdgeStyle;rounded=0;orthogonalLoop=1;jettySize=auto;html=1;exitX=1;exitY=0.5;exitDx=0;exitDy=0;" edge="1" parent="1" source="g_psVAVuW3C_1zubWyLo-2" target="g_psVAVuW3C_1zubWyLo-4">
          <mxGeometry relative="1" as="geometry" />
        </mxCell>
        <mxCell id="g_psVAVuW3C_1zubWyLo-2" value="PIM&amp;nbsp;" style="rounded=0;whiteSpace=wrap;html=1;" vertex="1" parent="1">
          <mxGeometry x="80" y="80" width="80" height="40" as="geometry" />
        </mxCell>
        <mxCell id="g_psVAVuW3C_1zubWyLo-18" style="edgeStyle=orthogonalEdgeStyle;rounded=0;orthogonalLoop=1;jettySize=auto;html=1;exitX=1;exitY=0.5;exitDx=0;exitDy=0;entryX=1;entryY=0.5;entryDx=0;entryDy=0;" edge="1" parent="1" source="g_psVAVuW3C_1zubWyLo-4" target="g_psVAVuW3C_1zubWyLo-11">
          <mxGeometry relative="1" as="geometry">
            <Array as="points">
              <mxPoint x="530" y="100" />
              <mxPoint x="530" y="400" />
            </Array>
          </mxGeometry>
        </mxCell>
        <mxCell id="g_psVAVuW3C_1zubWyLo-4" value="&lt;font style=&quot;font-size: 11px;&quot;&gt;Create Employee&lt;/font&gt;" style="rounded=0;whiteSpace=wrap;html=1;" vertex="1" parent="1">
          <mxGeometry x="220" y="80" width="90" height="40" as="geometry" />
        </mxCell>
        <mxCell id="g_psVAVuW3C_1zubWyLo-12" style="edgeStyle=orthogonalEdgeStyle;rounded=0;orthogonalLoop=1;jettySize=auto;html=1;exitX=1;exitY=0.25;exitDx=0;exitDy=0;entryX=0;entryY=0.25;entryDx=0;entryDy=0;" edge="1" parent="1" source="g_psVAVuW3C_1zubWyLo-6" target="g_psVAVuW3C_1zubWyLo-7">
          <mxGeometry relative="1" as="geometry" />
        </mxCell>
        <mxCell id="g_psVAVuW3C_1zubWyLo-6" value="Performance" style="rounded=0;whiteSpace=wrap;html=1;" vertex="1" parent="1">
          <mxGeometry x="80" y="160" width="80" height="40" as="geometry" />
        </mxCell>
        <mxCell id="g_psVAVuW3C_1zubWyLo-13" style="edgeStyle=orthogonalEdgeStyle;rounded=0;orthogonalLoop=1;jettySize=auto;html=1;exitX=0.5;exitY=1;exitDx=0;exitDy=0;entryX=0.5;entryY=0;entryDx=0;entryDy=0;" edge="1" parent="1" source="g_psVAVuW3C_1zubWyLo-7" target="g_psVAVuW3C_1zubWyLo-9">
          <mxGeometry relative="1" as="geometry" />
        </mxCell>
        <mxCell id="g_psVAVuW3C_1zubWyLo-7" value="&lt;font style=&quot;font-size: 11px;&quot;&gt;Tracker&lt;/font&gt;" style="rounded=0;whiteSpace=wrap;html=1;" vertex="1" parent="1">
          <mxGeometry x="210" y="160" width="90" height="40" as="geometry" />
        </mxCell>
        <mxCell id="g_psVAVuW3C_1zubWyLo-14" style="edgeStyle=orthogonalEdgeStyle;rounded=0;orthogonalLoop=1;jettySize=auto;html=1;exitX=1;exitY=0.5;exitDx=0;exitDy=0;" edge="1" parent="1" source="g_psVAVuW3C_1zubWyLo-9" target="g_psVAVuW3C_1zubWyLo-10">
          <mxGeometry relative="1" as="geometry" />
        </mxCell>
        <mxCell id="g_psVAVuW3C_1zubWyLo-9" value="Empoyee =&amp;nbsp;&lt;div&gt;User&lt;/div&gt;" style="rhombus;whiteSpace=wrap;html=1;" vertex="1" parent="1">
          <mxGeometry x="207.5" y="240" width="95" height="80" as="geometry" />
        </mxCell>
        <mxCell id="g_psVAVuW3C_1zubWyLo-10" value="My&amp;nbsp;Tracker" style="rounded=0;whiteSpace=wrap;html=1;" vertex="1" parent="1">
          <mxGeometry x="369" y="255" width="90" height="50" as="geometry" />
        </mxCell>
        <mxCell id="g_psVAVuW3C_1zubWyLo-11" value="Employee&amp;nbsp;Tracker" style="rounded=0;whiteSpace=wrap;html=1;" vertex="1" parent="1">
          <mxGeometry x="206.25" y="370" width="113.75" height="60" as="geometry" />
        </mxCell>
        <mxCell id="g_psVAVuW3C_1zubWyLo-15" style="edgeStyle=orthogonalEdgeStyle;rounded=0;orthogonalLoop=1;jettySize=auto;html=1;exitX=0.5;exitY=1;exitDx=0;exitDy=0;entryX=0.434;entryY=0.007;entryDx=0;entryDy=0;entryPerimeter=0;" edge="1" parent="1" source="g_psVAVuW3C_1zubWyLo-9" target="g_psVAVuW3C_1zubWyLo-11">
          <mxGeometry relative="1" as="geometry" />
        </mxCell>
        <mxCell id="g_psVAVuW3C_1zubWyLo-16" value="Yes" style="text;html=1;align=center;verticalAlign=middle;resizable=0;points=[];autosize=1;strokeColor=none;fillColor=none;" vertex="1" parent="1">
          <mxGeometry x="310" y="258" width="40" height="30" as="geometry" />
        </mxCell>
        <mxCell id="g_psVAVuW3C_1zubWyLo-17" value="No" style="text;html=1;align=center;verticalAlign=middle;resizable=0;points=[];autosize=1;strokeColor=none;fillColor=none;" vertex="1" parent="1">
          <mxGeometry x="220" y="328" width="40" height="30" as="geometry" />
        </mxCell>
      </root>
    </mxGraphModel>
  </diagram>
</mxfile>
